<svg id="Vrstva_1" data-name="Vrstva 1" xmlns="http://www.w3.org/2000/svg" viewBox="0 0 121.692 117"><defs><style>.cls-1,.cls-17,.cls-18,.cls-3,.cls-39,.cls-8{fill:none;stroke:#c1c1c1;stroke-linecap:round;stroke-linejoin:round;stroke-width:2px}.cls-3{stroke-dasharray:3.591 3.591}.cls-8{stroke-dasharray:3.316 3.316}.cls-17{stroke-dasharray:2.761 2.761}.cls-18{stroke-dasharray:3.273 3.273}.cls-31{fill:#fff}.cls-38{fill:#c1c1c1;opacity:.4}.cls-39{stroke-dasharray:3}</style></defs><path class="cls-1" d="M64.316 89.573q.7.252 1.431.446"/><path d="M68.565 90.536a18.51 18.51 0 001.879.1A18.179 18.179 0 0083.5 59.805" stroke-dasharray="2.865 2.865" fill="none" stroke="#c1c1c1" stroke-linecap="round" stroke-linejoin="round" stroke-width="2"/><path class="cls-1" d="M82.468 58.817q-.561-.5-1.164-.946"/><path class="cls-3" d="M68.849 30.134a2.29 2.29 0 10-2.289 2.29 2.289 2.289 0 002.289-2.29zm29.428 0a2.29 2.29 0 10-2.289 2.29 2.289 2.289 0 002.289-2.29z"/><path class="cls-1" d="M84.526 61.894q-.435.609-.82 1.255"/><path d="M82.492 65.582a18.229 18.229 0 00.355 14.55" stroke-dasharray="2.721 2.721" fill="none" stroke="#c1c1c1" stroke-linecap="round" stroke-linejoin="round" stroke-width="2"/><path class="cls-1" d="M83.468 81.341q.367.656.787 1.276M35.007 36.561h1.5"/><path stroke-dasharray="2.94 2.94" fill="none" stroke="#c1c1c1" stroke-linecap="round" stroke-linejoin="round" stroke-width="2" d="M39.447 36.561h63.217"/><path class="cls-1" d="M104.134 36.561h1.5m-47.38-12.45v1.5"/><path stroke-dasharray="3.031 3.031" fill="none" stroke="#c1c1c1" stroke-linecap="round" stroke-linejoin="round" stroke-width="2" d="M58.254 28.643v4.547"/><path class="cls-1" d="M58.254 34.706v1.5M93.695 116h-1.5"/><path stroke-dasharray="2.957 2.957" fill="none" stroke="#c1c1c1" stroke-linecap="round" stroke-linejoin="round" stroke-width="2" d="M89.238 116H43.401"/><path class="cls-1" d="M41.922 116h-1.5m47.326-84.913v1.5h-1.5"/><path class="cls-8" d="M82.932 32.587h-4.974"/><path class="cls-1" d="M76.3 32.587h-1.5v-1.5m0-1.905v-1.5h1.5"/><path class="cls-8" d="M79.616 27.682h4.974"/><path class="cls-1" d="M86.248 27.682h1.5v1.5"/><path d="M66.14 5.241h-3.393a1.257 1.257 0 01-1.117-.8l-.878-2.631A1.255 1.255 0 0059.638 1h-9.616a1.252 1.252 0 00-1.115.805l-.878 2.631a1.257 1.257 0 01-1.116.8H43.52a2.837 2.837 0 00-2.828 2.828v12.729a2.837 2.837 0 002.828 2.827h22.62a2.837 2.837 0 002.828-2.827V8.069a2.837 2.837 0 00-2.828-2.828z" stroke-dasharray="2.924 2.924" fill="none" stroke="#c1c1c1" stroke-linecap="round" stroke-linejoin="round" stroke-width="2"/><path d="M54.83 19.826a6.1 6.1 0 116.1-6.1 6.1 6.1 0 01-6.1 6.1z" stroke-dasharray="3.19 3.19" fill="none" stroke="#c1c1c1" stroke-linecap="round" stroke-linejoin="round" stroke-width="2"/><path d="M54.83 17.4a3.678 3.678 0 113.679-3.677A3.677 3.677 0 0154.83 17.4z" stroke-dasharray="2.884 2.884" fill="none" stroke="#c1c1c1" stroke-linecap="round" stroke-linejoin="round" stroke-width="2"/><path d="M64.618 10.373a.989.989 0 11.989-.989.99.99 0 01-.989.989z" stroke-dasharray="3.097 3.097" fill="none" stroke="#c1c1c1" stroke-linecap="round" stroke-linejoin="round" stroke-width="2"/><path class="cls-1" d="M54.828 3.381h1.5l.269 1.605h-1.5m-.534 0h-1.5l.253-1.605h1.5m-10.032-.564h1.5v2.424h-1.5m-.725 0h-1.5V2.817h1.5"/><rect x="92.251" y="75.709" width="28.441" height="40.291" rx="3" ry="3" stroke-dasharray="3.006 3.006" fill="none" stroke="#c1c1c1" stroke-linecap="round" stroke-linejoin="round" stroke-width="2"/><path class="cls-1" d="M92.455 109.486h1.5"/><path stroke-dasharray="2.804 2.804" fill="none" stroke="#c1c1c1" stroke-linecap="round" stroke-linejoin="round" stroke-width="2" d="M96.759 109.486h21.031"/><path class="cls-1" d="M119.192 109.486h1.5M92.55 80.247h1.5"/><path stroke-dasharray="2.783 2.783" fill="none" stroke="#c1c1c1" stroke-linecap="round" stroke-linejoin="round" stroke-width="2" d="M96.833 80.247h20.872"/><path class="cls-1" d="M119.096 80.247h1.5"/><path d="M107.357 112.653a.886.886 0 10-.886.885.886.886 0 00.886-.885z" stroke-dasharray="2.765 2.765" fill="none" stroke="#c1c1c1" stroke-linecap="round" stroke-linejoin="round" stroke-width="2"/><path class="cls-1" d="M65.722 65.969l1.001 1.118m1.621 1.81l1.001 1.118 1.104-1.016"/><path class="cls-17" d="M72.481 67.129l7.112-6.543"/><path class="cls-1" d="M80.609 59.651l1.104-1.015-1.06-1.061"/><path class="cls-18" d="M78.338 55.261L67.513 44.435a8.544 8.544 0 00-2.13-1.625"/><path class="cls-1" d="M63.864 42.2a5.707 5.707 0 00-1.484-.2M16.826 66.134l-.998 1.12m-1.462 1.641l-.998 1.12-1.103-1.016"/><path class="cls-17" d="M10.232 67.129L3.12 60.586"/><path class="cls-1" d="M2.104 59.651L1 58.636l1.061-1.061"/><path class="cls-18" d="M4.375 55.261L15.2 44.435a8.544 8.544 0 012.13-1.625"/><path class="cls-1" d="M18.849 42.2a5.707 5.707 0 011.484-.2m52.336 68.719h1.5"/><path stroke-dasharray="3.252 3.252" fill="none" stroke="#c1c1c1" stroke-linecap="round" stroke-linejoin="round" stroke-width="2" d="M77.421 110.719h11.384"/><path class="cls-1" d="M90.431 110.719h1.5m14.645-35.147v-1.5"/><path d="M106.576 71.057V27.612a4 4 0 00-4-4h-63.8a4 4 0 00-4 4v11.38" stroke-dasharray="3.016 3.016" fill="none" stroke="#c1c1c1" stroke-linecap="round" stroke-linejoin="round" stroke-width="2"/><path class="cls-1" d="M34.771 40.5V42h1.5"/><path stroke-dasharray="2.775 2.775" fill="none" stroke="#c1c1c1" stroke-linecap="round" stroke-linejoin="round" stroke-width="2" d="M39.047 42h20.816"/><path class="cls-1" d="M61.25 42h1.5l.044 1.499"/><path stroke-dasharray="3.017 3.017" fill="none" stroke="#c1c1c1" stroke-linecap="round" stroke-linejoin="round" stroke-width="2" d="M62.883 46.515l1.38 46.746"/><path class="cls-1" d="M64.308 94.769l.044 1.499M32.093 42h-1.5"/><path stroke-dasharray="3.05 3.05" fill="none" stroke="#c1c1c1" stroke-linecap="round" stroke-linejoin="round" stroke-width="2" d="M27.543 42h-4.575"/><path class="cls-1" d="M21.443 42h-1.5l-.053 1.499"/><path stroke-dasharray="3.089 3.089" fill="none" stroke="#c1c1c1" stroke-linecap="round" stroke-linejoin="round" stroke-width="2" d="M19.78 46.586l-2.351 66.371"/><path class="cls-1" d="M17.375 114.501L17.322 116h1.5"/><path stroke-dasharray="2.974 2.974" fill="none" stroke="#c1c1c1" stroke-linecap="round" stroke-linejoin="round" stroke-width="2" d="M21.796 116h40.151"/><path class="cls-1" d="M63.434 116h1.5M32.093 42a9 9 0 00.124 1.5"/><path d="M33.108 46.162a9.037 9.037 0 0016.593-1.3" stroke-dasharray="2.819 2.819" fill="none" stroke="#c1c1c1" stroke-linecap="round" stroke-linejoin="round" stroke-width="2"/><path class="cls-1" d="M50.04 43.5a9.106 9.106 0 00.123-1.5m10.93 55.092A4.8 4.8 0 0060 98.112h-1.5m-3.942.015h-1.5a4.751 4.751 0 00-1.1-1.014"/><path d="M49.109 96.054c-1.973-.147-4 1.073-5.906 5.012-2.574 5.3-3.972 13.515-1.393 14.77 1.146.556 2.879-.35 4.679-1.991" stroke-dasharray="3.072 3.072" fill="none" stroke="#c1c1c1" stroke-linecap="round" stroke-linejoin="round" stroke-width="2"/><path class="cls-1" d="M47.585 112.765c.336-.354.67-.729 1-1.119a4.171 4.171 0 00.938 1.161"/><path d="M51.7 113.785a4.256 4.256 0 00.568.037 4.171 4.171 0 002.789-1.076" stroke-dasharray="2.416 2.416" fill="none" stroke="#c1c1c1" stroke-linecap="round" stroke-linejoin="round" stroke-width="2"/><path class="cls-1" d="M55.823 111.82a4.115 4.115 0 00.537-1.395h.4a4.151 4.151 0 00.546 1.391"/><path d="M59.075 113.4a4.2 4.2 0 003.507.03" stroke-dasharray="2.409 2.409" fill="none" stroke="#c1c1c1" stroke-linecap="round" stroke-linejoin="round" stroke-width="2"/><path class="cls-1" d="M63.6 112.781a4.207 4.207 0 00.939-1.161c.341.386.684.752 1.024 1.1"/><path d="M67.872 114.732c1.4 1 2.632 1.433 3.464 1.024 2.579-1.268 1.135-9.478-1.469-14.762-2.424-4.931-5-5.577-7.424-4.614" stroke-dasharray="3.068 3.068" fill="none" stroke="#c1c1c1" stroke-linecap="round" stroke-linejoin="round" stroke-width="2"/><path class="cls-1" d="M46.909 106.306a.511.511 0 01-.208-.411v-1.023h-1.028a.506.506 0 01-.409-.2m-.009-2.281a.5.5 0 01.409-.2h1.027v-1.028a.5.5 0 01.2-.409m2.282-.015a.507.507 0 01.2.408v1.028h1.028a.5.5 0 01.407.2m.013 2.279a.508.508 0 01-.405.208h-1.028v1.025a.633.633 0 01-.026.135.5.5 0 01-.188.271"/><path class="cls-31" d="M60.865 111.232a1.613 1.613 0 111.609-1.617 1.615 1.615 0 01-1.609 1.617z"/><path d="M60.865 111.232a1.613 1.613 0 111.609-1.617 1.615 1.615 0 01-1.609 1.617z" stroke-dasharray="2.529 2.529" fill="none" stroke="#c1c1c1" stroke-linecap="round" stroke-linejoin="round" stroke-width="2"/><path d="M63.19 104.449a.968.968 0 11.964-.971.969.969 0 01-.964.971z" stroke-dasharray="3.026 3.026" fill="none" stroke="#c1c1c1" stroke-linecap="round" stroke-linejoin="round" stroke-width="2"/><path d="M65.542 106.367a.947.947 0 01-.353.072c-.019 0-.036-.012-.056-.013a.944.944 0 01-.879-.792.678.678 0 01-.033-.161.966.966 0 111.321.894z" stroke-dasharray="3.014 3.014" fill="none" stroke="#c1c1c1" stroke-linecap="round" stroke-linejoin="round" stroke-width="2"/><path d="M65.532 102.379a.955.955 0 01-.353.072.968.968 0 01-.006-1.936.947.947 0 01.354.07.963.963 0 010 1.794z" stroke-dasharray="3.023 3.023" fill="none" stroke="#c1c1c1" stroke-linecap="round" stroke-linejoin="round" stroke-width="2"/><path d="M67.178 104.439a.968.968 0 11.963-.971.969.969 0 01-.963.971z" stroke-dasharray="3.026 3.026" fill="none" stroke="#c1c1c1" stroke-linecap="round" stroke-linejoin="round" stroke-width="2"/><path class="cls-31" d="M52.094 111.266a1.557 1.557 0 111.68-1.425 1.557 1.557 0 01-1.68 1.425z"/><path d="M52.094 111.266a1.557 1.557 0 111.68-1.425 1.557 1.557 0 01-1.68 1.425z" stroke-dasharray="2.442 2.442" fill="none" stroke="#c1c1c1" stroke-linecap="round" stroke-linejoin="round" stroke-width="2"/><path class="cls-38" d="M91.692 81h29v28h-29zm-17-54h13v6h-13zm-33.5 24a9.5 9.5 0 009.5-9.5h-19a9.5 9.5 0 009.5 9.5z"/><circle class="cls-38" cx="55.085" cy="13.597" r="6.55"/><circle class="cls-38" cx="52.192" cy="109.5" r="1.5"/><circle class="cls-38" cx="61.192" cy="109.5" r="1.5"/><circle class="cls-38" cx="66.692" cy="30" r="2"/><circle class="cls-38" cx="95.692" cy="30" r="2"/><path class="cls-38" d="M84.692 61l-3-3-12 12-6-5 1 25 5 1c7-1 12-3 15-7-1-3-8-8 0-23z"/><path class="cls-39" d="M70.192 98a25.477 25.477 0 0021.353-11.557M95.692 72.5a25.5 25.5 0 00-25.5-25.5"/></svg>